<svg width="572" height="168" viewBox="0 0 572 168" fill="none" xmlns="http://www.w3.org/2000/svg">
<path d="M258.454 133V36.4H276.946L318.07 104.572H308.272L348.706 36.4H367.06L367.336 133H346.36L346.222 68.554H350.086L317.794 122.788H307.72L274.738 68.554H279.43V133H258.454Z" fill="#506CF4"/>
<path d="M134.672 133.992C127.563 133.992 121.239 132.504 115.7 129.528C110.244 126.552 105.904 122.501 102.68 117.376C99.5387 112.168 97.968 106.257 97.968 99.644C97.968 92.948 99.5387 87.0373 102.68 81.912C105.904 76.704 110.244 72.6533 115.7 69.76C121.239 66.784 127.563 65.296 134.672 65.296C141.699 65.296 147.981 66.784 153.52 69.76C159.059 72.6533 163.399 76.6627 166.54 81.788C169.681 86.9133 171.252 92.8653 171.252 99.644C171.252 106.257 169.681 112.168 166.54 117.376C163.399 122.501 159.059 126.552 153.52 129.528C147.981 132.504 141.699 133.992 134.672 133.992ZM134.672 118.12C137.896 118.12 140.789 117.376 143.352 115.888C145.915 114.4 147.94 112.292 149.428 109.564C150.916 106.753 151.66 103.447 151.66 99.644C151.66 95.7587 150.916 92.452 149.428 89.724C147.94 86.996 145.915 84.888 143.352 83.4C140.789 81.912 137.896 81.168 134.672 81.168C131.448 81.168 128.555 81.912 125.992 83.4C123.429 84.888 121.363 86.996 119.792 89.724C118.304 92.452 117.56 95.7587 117.56 99.644C117.56 103.447 118.304 106.753 119.792 109.564C121.363 112.292 123.429 114.4 125.992 115.888C128.555 117.376 131.448 118.12 134.672 118.12ZM216.422 133.992C209.23 133.992 202.823 132.545 197.202 129.652C191.581 126.676 187.158 122.584 183.934 117.376C180.793 112.168 179.222 106.257 179.222 99.644C179.222 92.948 180.793 87.0373 183.934 81.912C187.158 76.704 191.581 72.6533 197.202 69.76C202.823 66.784 209.23 65.296 216.422 65.296C223.449 65.296 229.566 66.784 234.774 69.76C239.982 72.6533 243.826 76.828 246.306 82.284L231.302 90.344C229.566 87.2027 227.375 84.888 224.73 83.4C222.167 81.912 219.357 81.168 216.298 81.168C212.991 81.168 210.015 81.912 207.37 83.4C204.725 84.888 202.617 86.996 201.046 89.724C199.558 92.452 198.814 95.7587 198.814 99.644C198.814 103.529 199.558 106.836 201.046 109.564C202.617 112.292 204.725 114.4 207.37 115.888C210.015 117.376 212.991 118.12 216.298 118.12C219.357 118.12 222.167 117.417 224.73 116.012C227.375 114.524 229.566 112.168 231.302 108.944L246.306 117.128C243.826 122.501 239.982 126.676 234.774 129.652C229.566 132.545 223.449 133.992 216.422 133.992Z" fill="#506CF4"/>
<path d="M383.928 135V68.288H403.272V135H383.928ZM393.6 58.988C390.045 58.988 387.152 57.9547 384.92 55.888C382.688 53.8213 381.572 51.2587 381.572 48.2C381.572 45.1413 382.688 42.5787 384.92 40.512C387.152 38.4453 390.045 37.412 393.6 37.412C397.155 37.412 400.048 38.404 402.28 40.388C404.512 42.2893 405.628 44.7693 405.628 47.828C405.628 51.052 404.512 53.7387 402.28 55.888C400.131 57.9547 397.237 58.988 393.6 58.988ZM459.293 67.296C464.584 67.296 469.296 68.3707 473.429 70.52C477.645 72.5867 480.952 75.8107 483.349 80.192C485.746 84.4907 486.945 90.0293 486.945 96.808V135H467.601V99.784C467.601 94.4107 466.402 90.4427 464.005 87.88C461.69 85.3173 458.384 84.036 454.085 84.036C451.026 84.036 448.257 84.6973 445.777 86.02C443.38 87.26 441.478 89.2027 440.073 91.848C438.75 94.4933 438.089 97.8827 438.089 102.016V135H418.745V68.288H437.221V86.764L433.749 81.184C436.146 76.72 439.577 73.2893 444.041 70.892C448.505 68.4947 453.589 67.296 459.293 67.296ZM535.592 135.992C527.986 135.992 521.29 134.504 515.504 131.528C509.8 128.552 505.377 124.501 502.236 119.376C499.094 114.168 497.524 108.257 497.524 101.644C497.524 94.948 499.053 89.0373 502.112 83.912C505.253 78.704 509.51 74.6533 514.884 71.76C520.257 68.784 526.333 67.296 533.112 67.296C539.642 67.296 545.512 68.7013 550.72 71.512C556.01 74.24 560.185 78.208 563.244 83.416C566.302 88.5413 567.832 94.7 567.832 101.892C567.832 102.636 567.79 103.504 567.708 104.496C567.625 105.405 567.542 106.273 567.46 107.1H513.272V95.816H557.292L549.852 99.164C549.852 95.692 549.149 92.6747 547.744 90.112C546.338 87.5493 544.396 85.5653 541.916 84.16C539.436 82.672 536.542 81.928 533.236 81.928C529.929 81.928 526.994 82.672 524.432 84.16C521.952 85.5653 520.009 87.5907 518.604 90.236C517.198 92.7987 516.496 95.8573 516.496 99.412V102.388C516.496 106.025 517.281 109.249 518.852 112.06C520.505 114.788 522.778 116.896 525.672 118.384C528.648 119.789 532.12 120.492 536.088 120.492C539.642 120.492 542.742 119.955 545.388 118.88C548.116 117.805 550.596 116.193 552.828 114.044L563.12 125.204C560.061 128.676 556.217 131.363 551.588 133.264C546.958 135.083 541.626 135.992 535.592 135.992Z" fill="#506CF4"/>
<path d="M0 38C0 36.8954 0.895431 36 2 36H44C68.8528 36 89 56.1472 89 81V88C89 112.853 68.8528 133 44 133H2C0.89543 133 0 132.105 0 131V38Z" fill="#506CF4"/>
</svg>
